#!OML:ASF F:\VICON\USERDATA\INSTALL\rory3\rory3.ASF
:FULLY-SPECIFIED
:DEGREES
434
root -0.750875 17.4947 -4.00092 371.017 -28.7183 -360.457
lowerback 15.9778 2.543 -4.83825
upperback 7.88876 2.46152 -1.86013
thorax -0.675542 1.07251 0.374792
lowerneck -0.663455 0.89677 -5.31843
upperneck 29.0495 -0.02202 5.88151
head 9.17038 -0.117568 2.94871
rclavicle 4.57205e-014 -4.85035e-014
rhumerus -24.1619 22.1069 -76.9934
rradius 68.3969
rwrist 14.1542
rhand -28.1448 4.0393
rfingers 7.12502
rthumb -1.52581 -25.935
lclavicle 4.57205e-014 -4.85035e-014
lhumerus -15.8575 -35.1589 77.3303
lradius 70.3304
lwrist -15.138
lhand -2.14019 28.7851
lfingers 7.12502
lthumb 23.5389 57.3647
rfemur -41.2414 -0.288032 9.35258
rtibia 47.8134
rfoot -17.4371 -11.859
rtoes 0.822835
lfemur -42.1814 7.23849 -11.3911
ltibia 46.3577
lfoot -12.4547 -7.6326
ltoes -4.55665
435
root -0.740399 17.476 -4.01377 370.971 -28.7464 -360.45
lowerback 15.9691 2.50728 -4.99029
upperback 7.87065 2.39499 -1.82563
thorax -0.693722 1.03548 0.507034
lowerneck -0.526116 0.994504 -5.43535
upperneck 28.926 0.147178 5.781
head 9.0905 -0.0621346 2.94189
rclavicle -2.38542e-014 1.59028e-015
rhumerus -24.1987 22.5152 -76.9666
rradius 68.5076
rwrist 14.0734
rhand -28.3121 4.33161
rfingers 7.12502
rthumb -1.68732 -25.6415
lclavicle -2.38542e-014 1.59028e-015
lhumerus -16.1411 -34.8777 77.6794
lradius 70.4217
lwrist -15.1003
lhand -2.36405 28.9517
lfingers 7.12502
lthumb 23.3242 57.5587
rfemur -41.4213 -0.239605 9.30364
rtibia 48.1067
rfoot -17.5506 -11.8088
rtoes 1.11724
lfemur -42.3543 7.32544 -11.4192
ltibia 46.6859
lfoot -12.5996 -7.76005
ltoes -4.82986
436
root -0.730592 17.4562 -4.03045 370.902 -28.7506 -360.429
lowerback 16.1119 2.53586 -5.12902
upperback 7.80933 2.39981 -1.83875
thorax -0.837606 1.03794 0.563801
lowerneck -0.35421 1.0088 -5.32208
upperneck 28.8078 0.194698 5.60998
head 9.01575 -0.0455601 2.8613
rclavicle -4.41302e-014 3.18055e-015
rhumerus -24.3932 22.7014 -76.9813
rradius 68.6425
rwrist 14.0072
rhand -28.3228 4.03107
rfingers 7.12502
rthumb -1.69766 -25.9419
lclavicle -4.41302e-014 3.18055e-015
lhumerus -16.3518 -34.9616 77.92
lradius 70.4928
lwrist -14.9763
lhand -2.6438 29.2174
lfingers 7.12502
lthumb 23.0558 57.8582
rfemur -41.5912 -0.144671 9.23739
rtibia 48.4024
rfoot -17.6604 -11.8462
rtoes 1.23852
lfemur -42.5429 7.42011 -11.4559
ltibia 47.0226
lfoot -12.6986 -7.91714
ltoes -4.94095
437
root -0.719818 17.435 -4.04762 370.918 -28.7194 -360.546
lowerback 16.241 2.52982 -5.10748
upperback 7.77837 2.38462 -1.82502
thorax -0.937325 1.03283 0.563621
lowerneck -0.405061 1.01919 -5.36984
upperneck 28.8441 0.211943 5.62263
head 9.03674 -0.0412208 2.87661
rclavicle -7.15625e-014 2.06736e-014
rhumerus -24.3329 22.7831 -77.0437
rradius 68.5499
rwrist 14.1285
rhand -28.2354 3.88382
rfingers 7.12502
rthumb -1.61329 -26.0898
lclavicle -7.15625e-014 2.06736e-014
lhumerus -16.3488 -35.0901 77.9822
lradius 70.5314
lwrist -14.6966
lhand -2.70853 29.354
lfingers 7.12502
lthumb 22.9937 58.0025
rfemur -41.7799 -0.0393844 9.31326
rtibia 48.6842
rfoot -17.6981 -11.9571
rtoes 1.12193
lfemur -42.7898 7.51696 -11.3682
ltibia 47.3437
lfoot -12.6968 -8.05497
ltoes -4.78237
438
root -0.710011 17.4167 -4.06309 370.961 -28.6973 -360.738
lowerback 16.2854 2.55662 -4.94452
upperback 7.83492 2.43976 -1.84422
thorax -0.89689 1.06245 0.442379
lowerneck -0.603907 0.982914 -5.41091
upperneck 28.8927 0.130998 5.80449
head 9.09369 -0.063371 2.94452
rclavicle -3.97569e-015 -7.95139e-016
rhumerus -24.0656 22.5843 -77.1388
rradius 68.38
rwrist 14.3042
rhand -28.405 3.83153
rfingers 7.12502
rthumb -1.77711 -26.1408
lclavicle -3.97569e-015 -7.95139e-016
lhumerus -16.1667 -35.2148 77.9432
lradius 70.5696
lwrist -14.6904
lhand -2.28178 29.3084
lfingers 7.12502
lthumb 23.4031 57.9054
rfemur -41.9384 0.0203731 9.48599
rtibia 48.9399
rfoot -17.7063 -12.0277
rtoes 0.852295
lfemur -42.9904 7.6015 -11.2004
ltibia 47.6319
lfoot -12.7113 -8.15596
ltoes -4.96127
439
root -0.702934 17.4037 -4.07746 370.928 -28.6504 -360.795
lowerback 16.3289 2.60284 -4.94877
upperback 7.90212 2.49639 -1.8731
thorax -0.849265 1.08855 0.404459
lowerneck -0.745114 0.923711 -5.30774
upperneck 28.8517 0.0445366 5.82865
head 9.11058 -0.0873204 2.92894
rclavicle 1.43125e-014 1.90833e-014
rhumerus -23.919 22.4186 -77.1311
rradius 68.3677
rwrist 14.2848
rhand -28.3559 3.71761
rfingers 7.12502
rthumb -1.72967 -26.2551
lclavicle 1.43125e-014 1.90833e-014
lhumerus -16.0719 -35.2277 78.0155
lradius 70.6276
lwrist -14.9442
lhand -2.53057 29.3931
lfingers 7.12502
lthumb 23.1644 58.0203
rfemur -42.0421 -0.0368975 9.55606
rtibia 49.1807
rfoot -17.8242 -11.9979
rtoes 0.959791
lfemur -43.1227 7.6276 -11.1452
ltibia 47.8831
lfoot -12.7038 -8.28837
ltoes -4.8496
440
root -0.695855 17.3904 -4.09239 370.881 -28.5903 -360.789
lowerback 16.3865 2.61542 -5.06936
upperback 7.92222 2.4917 -1.86851
thorax -0.861722 1.08271 0.475781
lowerneck -0.820293 0.902026 -5.1354
upperneck 28.8396 0.0501012 5.63897
head 9.12213 -0.0833081 2.83331
rclavicle -3.22031e-014 -3.18055e-015
rhumerus -23.9201 22.4263 -77.1024
rradius 68.4314
rwrist 14.1623
rhand -28.0105 3.31373
rfingers 7.12502
rthumb -1.39603 -26.6615
lclavicle -3.22031e-014 -3.18055e-015
lhumerus -16.1102 -35.1173 78.2048
lradius 70.6704
lwrist -15.0999
lhand -3.15327 29.4462
lfingers 7.12502
lthumb 22.5669 58.1472
rfemur -42.1618 -0.0902137 9.55495
rtibia 49.422
rfoot -17.9389 -11.974
rtoes 1.22361
lfemur -43.2746 7.64334 -11.1548
ltibia 48.1141
lfoot -12.6799 -8.38621
ltoes -4.70825
